<?xml version="1.0"?>
<svg viewBox="0 0 80 96" xmlns="http://www.w3.org/2000/svg" xmlns:svg="http://www.w3.org/2000/svg">
 <defs>
  <linearGradient id="a" x1="0.33" x2="0.61" y1="-0.08" y2="0.87">
   <stop offset="0" stop-color="#fff" stop-opacity="0"/>
   <stop offset="1" stop-opacity="0.8"/>
  </linearGradient>
 </defs>
 <g class="layer">
  <title>Layer 1</title>
  <path d="m40,95.95c22.09,0 40,-17.91 40,-40s-17.91,-40 -40,-40s-40,17.91 -40,40s17.91,40 40,40z" fill="#4382FF" id="svg_1"/>
  <path d="m40,95.95c22.09,0 40,-17.91 40,-40s-17.91,-40 -40,-40s-40,17.91 -40,40s17.91,40 40,40z" fill="#fff" id="svg_2" opacity="0.8"/>
  <path d="m50.65,0.74l-31.5,4.1c-1.75,0.23 -2.98,1.83 -2.75,3.57l8.48,65.13c0.23,1.74 1.83,2.98 3.57,2.75l31.51,-4.1c1.74,-0.23 2.97,-1.83 2.75,-3.58l-8.48,-65.12c-0.23,-1.75 -1.83,-2.98 -3.58,-2.75z" fill="#4382FF" id="svg_3"/>
  <path d="m61.63,60.34l-6.33,-48.58l-14.64,1.91c2.61,7.85 3.81,16.11 3.57,24.38c-0.27,8.71 -2.18,17.29 -5.65,25.29l23.05,-3z" fill="url(#a)" id="svg_4"/>
  <path d="m43.46,71.6c1.7,0 3.08,-1.38 3.08,-3.08c0,-1.7 -1.38,-3.08 -3.08,-3.08s-3.07,1.38 -3.07,3.08c0,1.7 1.37,3.08 3.07,3.08z" fill="#fff" id="svg_5"/>
  <g id="svg_6">
   <path d="m39.67,7.41l-8.19,1.07c-0.05,0 -0.1,-0.01 -0.14,-0.04s-0.06,-0.08 -0.07,-0.13s0.01,-0.09 0.04,-0.13c0.03,-0.04 0.08,-0.07 0.13,-0.07l8.19,-1.07c0.05,-0.01 0.1,0 0.14,0.04c0.04,0.03 0.06,0.07 0.07,0.12s-0.01,0.1 -0.04,0.14c-0.03,0.04 -0.07,0.06 -0.12,0.07l-0.01,0z" fill="#000" id="svg_7"/>
  </g>
 </g>
</svg>