<?xml version="1.0"?>
<svg viewBox="0 0 80 81" xmlns="http://www.w3.org/2000/svg" xmlns:svg="http://www.w3.org/2000/svg">
 <defs>
  <linearGradient id="a" x1="36%" x2="51%" y1="96%" y2="3%">
   <stop offset="0" stop-color="black" stop-opacity="0.8"/>
   <stop offset="1" stop-color="white" stop-opacity="0"/>
  </linearGradient>
 </defs>
 <g class="layer">
  <title>Layer 1</title>
  <path d="m40,80.47c22.09,0 40,-17.9 40,-40s-17.91,-40 -40,-40s-40,17.91 -40,40s17.91,40 40,40z" fill="#4382FF" id="svg_1"/>
  <path d="m40,80.47c22.09,0 40,-17.9 40,-40s-17.91,-40 -40,-40s-40,17.91 -40,40s17.91,40 40,40z" fill="#fff" id="svg_2" opacity="0.8"/>
  <path d="m52,5c7.78,0 14.39,2.43 19.83,7.29c5.45,4.86 8.17,10.74 8.17,17.65c0,4.28 -1.53,7.92 -4.59,10.94c-3.07,3.01 -6.74,4.52 -11.01,4.52l-5.4,0c-1.36,0 -2.48,0.46 -3.35,1.38s-1.32,2.02 -1.32,3.28c0,1.17 0.39,2.19 1.17,3.07c0.78,0.97 1.17,2.04 1.17,3.2c0,1.27 -0.47,2.36 -1.39,3.29c-0.92,0.92 -2.02,1.38 -3.28,1.38c-7.78,0 -14.39,-2.72 -19.83,-8.17c-5.45,-5.44 -8.17,-12.05 -8.17,-19.83s2.72,-14.39 8.17,-19.83c5.44,-5.45 12.05,-8.17 19.83,-8.17zm-17.14,28c1.32,0 2.44,-0.46 3.36,-1.39c0.92,-0.92 1.38,-2.01 1.38,-3.28c0,-1.26 -0.46,-2.35 -1.38,-3.28c-0.92,-0.92 -2.04,-1.38 -3.36,-1.38s-2.4,0.46 -3.28,1.38s-1.31,2.02 -1.31,3.28c0,1.27 0.44,2.36 1.31,3.28s1.97,1.39 3.28,1.39zm9.34,-12.4c1.31,0 2.43,-0.46 3.35,-1.38s1.39,-2.04 1.39,-3.36s-0.46,-2.4 -1.39,-3.28s-2.04,-1.31 -3.35,-1.31s-2.41,0.44 -3.28,1.31s-1.32,1.97 -1.32,3.28s0.44,2.44 1.32,3.36s1.97,1.38 3.28,1.38zm15.6,0c1.31,0 2.41,-0.46 3.28,-1.38s1.32,-2.04 1.32,-3.36s-0.44,-2.4 -1.32,-3.28s-1.97,-1.31 -3.28,-1.31s-2.43,0.44 -3.35,1.31s-1.39,1.97 -1.39,3.28s0.46,2.44 1.39,3.36s2.04,1.38 3.35,1.38zm9.34,12.4c1.31,0 2.4,-0.46 3.28,-1.39s1.31,-2.01 1.31,-3.28c0,-1.26 -0.44,-2.35 -1.31,-3.28s-1.97,-1.38 -3.28,-1.38s-2.43,0.46 -3.36,1.38c-0.92,0.93 -1.38,2.02 -1.38,3.28c0,1.27 0.46,2.36 1.38,3.28c0.93,0.93 2.04,1.39 3.36,1.39z" fill="#4382FF" id="svg_3"/>
  <path clip-rule="evenodd" d="m52,5c7.78,0 14.39,2.43 19.83,7.29c5.45,4.86 8.17,10.74 8.17,17.65c0,4.28 -1.53,7.92 -4.59,10.94s-6.74,4.52 -11.01,4.52l-5.4,0c-1.36,0 -2.48,0.46 -3.35,1.38c0,0 2.35,-5.78 -1.47,-16.84c-3.83,-11.06 -2.18,-24.94 -2.18,-24.94zm11.08,14.22c-0.87,0.92 -1.97,1.38 -3.28,1.38s-2.43,-0.46 -3.35,-1.38c-0.93,-0.92 -1.39,-2.04 -1.39,-3.36s0.46,-2.4 1.39,-3.28s2.04,-1.31 3.35,-1.31s2.41,0.44 3.28,1.31s1.32,1.97 1.32,3.28s-0.44,2.44 -1.32,3.36zm9.34,12.4c-0.88,0.92 -1.97,1.38 -3.28,1.38s-2.44,-0.46 -3.36,-1.39c-0.92,-0.92 -1.38,-2.01 -1.38,-3.28s0.46,-2.35 1.38,-3.28c0.92,-0.92 2.04,-1.38 3.36,-1.38s2.4,0.46 3.28,1.38s1.31,2.02 1.31,3.28s-0.44,2.36 -1.31,3.29z" fill="url(#a)" fill-rule="evenodd" id="svg_4"/>
 </g>
</svg>