<?xml version="1.0"?>
<svg viewBox="0 0 80 85" xmlns="http://www.w3.org/2000/svg" xmlns:svg="http://www.w3.org/2000/svg">
 <defs>
  <linearGradient id="b" x1="59%" x2="43%" y1="95%" y2="4%">
   <stop offset="0" stop-color="black"/>
   <stop offset="1" stop-color="white" stop-opacity="0"/>
  </linearGradient>
  <linearGradient id="a" x1="35%" x2="64%" y1="97%" y2="6%">
   <stop offset="0" stop-color="black" stop-opacity="0.8"/>
   <stop offset="1" stop-color="white" stop-opacity="0"/>
  </linearGradient>
 </defs>
 <g class="layer">
  <title>Layer 1</title>
  <path d="m40.88,84.23c19.31,0 34.96,-15.65 34.96,-34.95s-15.65,-34.96 -34.96,-34.96c-19.3,0 -34.95,15.65 -34.95,34.96s15.65,34.95 34.95,34.95z" fill="#4382FF" id="svg_1"/>
  <path d="m40.88,84.23c19.31,0 34.96,-15.65 34.96,-34.95s-15.65,-34.96 -34.96,-34.96c-19.3,0 -34.95,15.65 -34.95,34.96s15.65,34.95 34.95,34.95z" fill="#fff" id="svg_2" opacity="0.8"/>
  <path d="m54.33,4.99l3.18,20.31c0.1,0.62 0.07,1.25 -0.07,1.86c-0.15,0.61 -0.42,1.18 -0.79,1.69c-0.37,0.51 -0.84,0.94 -1.37,1.26s-1.13,0.55 -1.75,0.65l-35.85,5.62l-6.22,6.98l-0.55,-5.92l-2.21,0.34c-1.25,0.2 -2.52,-0.11 -3.54,-0.86c-1.03,-0.75 -1.71,-1.87 -1.91,-3.12l-3.19,-20.31c-0.2,-1.25 0.11,-2.53 0.86,-3.55c0.74,-1.03 1.87,-1.71 3.12,-1.91l44.84,-7.03c1.25,-0.19 2.52,0.12 3.55,0.87c1.02,0.74 1.7,1.87 1.9,3.12z" fill="#4382FF" id="svg_3"/>
  <path d="m47.36,12.18l-38.46,6.03c-0.24,0.03 -0.48,-0.04 -0.68,-0.19c-0.19,-0.15 -0.32,-0.37 -0.36,-0.61s0.02,-0.49 0.16,-0.69s0.35,-0.34 0.59,-0.39l38.46,-6.03c0.12,-0.02 0.25,-0.01 0.37,0.02c0.12,0.03 0.23,0.08 0.33,0.15s0.19,0.17 0.26,0.28s0.1,0.22 0.12,0.35c0.02,0.12 0.02,0.25 -0.01,0.37c-0.03,0.12 -0.08,0.23 -0.16,0.33s-0.16,0.19 -0.27,0.26c-0.11,0.06 -0.23,0.1 -0.35,0.12z" fill="#fff" id="svg_4"/>
  <path d="m48.17,17.32l-38.46,6.03c-0.13,0.02 -0.25,0.01 -0.37,-0.02c-0.13,-0.03 -0.24,-0.08 -0.34,-0.15c-0.1,-0.08 -0.19,-0.17 -0.25,-0.28s-0.11,-0.22 -0.13,-0.35c-0.02,-0.12 -0.01,-0.25 0.01,-0.37c0.03,-0.12 0.09,-0.23 0.16,-0.33s0.17,-0.19 0.27,-0.25c0.11,-0.07 0.23,-0.11 0.35,-0.13l38.46,-6.03c0.12,-0.02 0.25,-0.01 0.37,0.02s0.24,0.08 0.34,0.15s0.18,0.17 0.25,0.28c0.06,0.1 0.11,0.22 0.13,0.34c0.02,0.13 0.01,0.25 -0.02,0.37s-0.08,0.24 -0.15,0.34s-0.17,0.19 -0.28,0.25c-0.1,0.07 -0.22,0.11 -0.34,0.13z" fill="#fff" id="svg_5"/>
  <path d="m40.89,23.72l-30.38,4.76c-0.25,0.04 -0.5,-0.02 -0.7,-0.17c-0.21,-0.14 -0.34,-0.37 -0.38,-0.62c-0.04,-0.24 0.02,-0.5 0.17,-0.7c0.14,-0.21 0.37,-0.34 0.62,-0.38l30.37,-4.76c0.24,-0.02 0.47,0.06 0.66,0.2c0.18,0.15 0.3,0.36 0.34,0.6c0.04,0.23 -0.01,0.47 -0.14,0.67s-0.33,0.34 -0.56,0.4z" fill="#fff" id="svg_6"/>
  <path d="m54.33,4.99l3.18,20.31c0.1,0.62 0.07,1.25 -0.08,1.86c-0.14,0.61 -0.41,1.18 -0.78,1.69c-0.37,0.51 -0.84,0.94 -1.37,1.26c-0.54,0.33 -1.13,0.55 -1.75,0.65l-18.69,2.92c0.35,-5.29 -0.19,-10.6 -1.59,-15.71c-1.31,-4.81 -3.37,-9.39 -6.09,-13.57l21.71,-3.4c1.25,-0.19 2.53,0.12 3.55,0.87s1.71,1.87 1.91,3.12z" fill="url(#b)" id="svg_7"/>
  <path d="m37.44,29.44l-4.58,20.04c-0.29,1.23 -0.07,2.53 0.6,3.6c0.67,1.07 1.74,1.84 2.97,2.12l24.26,5.55l5.72,7.4l0.96,-5.87l2.18,0.5c1.24,0.28 2.53,0.07 3.61,-0.6c1.07,-0.67 1.83,-1.74 2.12,-2.98l4.59,-20.04c0.28,-1.23 0.06,-2.53 -0.62,-3.61c-0.67,-1.07 -1.74,-1.83 -2.98,-2.12l-33.1,-7.58c-1.24,-0.29 -2.54,-0.07 -3.61,0.61s-1.84,1.74 -2.12,2.98z" fill="#4382FF" id="svg_8"/>
  <path d="m79.88,39.15l-4.59,20.03c-0.29,1.23 -1.05,2.3 -2.12,2.97c-1.08,0.67 -2.37,0.89 -3.61,0.61l-2.18,-0.5l-0.96,5.87l-5.72,-7.4l-8.81,-2.02c2.18,-3.75 3.91,-7.75 5.17,-11.9c1.7,-5.59 2.53,-11.4 2.47,-17.24l16.75,3.83c0.62,0.14 1.2,0.4 1.71,0.77c0.51,0.36 0.95,0.82 1.28,1.36s0.56,1.13 0.67,1.75c0.1,0.62 0.08,1.26 -0.06,1.87z" fill="url(#a)" id="svg_9"/>
  <rect fill="#fff" height="2.21" id="svg_10" rx="1.1" transform="rotate(57.896 49.901 33.589)" width="8.63" x="49.9" y="33.59"/>
  <rect fill="#fff" height="2.2" id="svg_11" rx="1.1" transform="rotate(162.9 54.186 41.479)" width="8.63" x="54.19" y="41.48"/>
  <rect fill="#fff" height="2.29" id="svg_12" rx="1.15" transform="matrix(-.84708 .53146 .53146 .84708 65.886 37.248)" width="8.63"/>
  <rect fill="#fff" height="2.21" id="svg_13" rx="1.11" transform="matrix(.73259 .68067 .68067 -.73259 58.594 42.489)" width="8.63"/>
  <path d="m60.37,48.26c0.54,0.12 0.88,0.66 0.68,1.18c-1.16,2.89 -4.28,4.59 -7.41,3.88c-3.13,-0.72 -5.2,-3.61 -4.98,-6.72c0.04,-0.55 0.59,-0.89 1.12,-0.76l10.59,2.42z" fill="#fff" id="svg_14"/>
 </g>
</svg>