<?xml version="1.0"?>
<svg viewBox="0 0 91 85" xmlns="http://www.w3.org/2000/svg" xmlns:svg="http://www.w3.org/2000/svg">
 <defs>
  <linearGradient id="a" x1="69%" x2="37%" y1="93%" y2="6%">
   <stop offset="0" stop-color="black" stop-opacity="0.8"/>
   <stop offset="1" stop-color="white" stop-opacity="0"/>
  </linearGradient>
 </defs>
 <g class="layer">
  <title>Layer 1</title>
  <path d="m40,84.8c22.09,0 40,-17.91 40,-40s-17.91,-40 -40,-40s-40,17.91 -40,40s17.91,40 40,40z" fill="#4382FF" id="svg_1"/>
  <path d="m40,84.8c22.09,0 40,-17.91 40,-40s-17.91,-40 -40,-40s-40,17.91 -40,40s17.91,40 40,40z" fill="#fff" id="svg_2" opacity="0.8"/>
  <path d="m64.21,7.51l-54.75,17.25c-0.51,0.16 -0.98,0.41 -1.38,0.74c-0.4,0.33 -0.73,0.73 -0.97,1.18c-0.24,0.44 -0.38,0.93 -0.42,1.43c-0.03,0.51 0.03,1.01 0.2,1.48l14.48,40.88c0.34,0.96 1.07,1.75 2.04,2.21c0.96,0.45 2.07,0.52 3.09,0.2l54.76,-17.25c0.5,-0.16 0.97,-0.41 1.37,-0.74c0.41,-0.33 0.74,-0.73 0.97,-1.18c0.24,-0.45 0.38,-0.94 0.42,-1.44c0.04,-0.5 -0.03,-1 -0.2,-1.48l-14.49,-40.89c-0.35,-0.95 -1.08,-1.74 -2.04,-2.19c-0.95,-0.45 -2.06,-0.52 -3.08,-0.2zm-11.14,5.34c0.63,-0.19 1.31,-0.21 1.95,-0.05c0.63,0.17 1.21,0.51 1.64,0.98c0.43,0.47 0.71,1.06 0.79,1.68s-0.03,1.25 -0.33,1.8c-0.29,0.56 -0.76,1.03 -1.33,1.34c-0.58,0.3 -1.24,0.45 -1.9,0.4c-0.66,-0.04 -1.29,-0.27 -1.82,-0.65c-0.52,-0.39 -0.91,-0.91 -1.12,-1.5c-0.14,-0.39 -0.2,-0.81 -0.17,-1.22c0.04,-0.42 0.15,-0.82 0.35,-1.19s0.47,-0.7 0.8,-0.98s0.72,-0.48 1.14,-0.61zm-31.31,9.86c0.63,-0.19 1.3,-0.21 1.94,-0.05c0.64,0.17 1.21,0.51 1.65,0.98s0.71,1.06 0.79,1.68s-0.03,1.25 -0.33,1.8c-0.3,0.56 -0.76,1.03 -1.34,1.34s-1.23,0.45 -1.89,0.4c-0.66,-0.04 -1.3,-0.27 -1.82,-0.65c-0.52,-0.39 -0.92,-0.91 -1.13,-1.5c-0.13,-0.39 -0.19,-0.81 -0.16,-1.22c0.03,-0.42 0.15,-0.82 0.35,-1.19c0.19,-0.37 0.47,-0.71 0.8,-0.98s0.72,-0.48 1.14,-0.61z" fill="#4382FF" id="svg_3"/>
  <path d="m64.21,7.51l-54.75,17.25c-0.51,0.16 -0.98,0.41 -1.38,0.74c-0.4,0.33 -0.73,0.73 -0.97,1.18c-0.24,0.44 -0.38,0.93 -0.42,1.43c-0.03,0.51 0.03,1.01 0.2,1.48l2,5.68l62.46,-19.68l-2,-5.67c-0.17,-0.48 -0.44,-0.92 -0.79,-1.3s-0.77,-0.69 -1.25,-0.91c-0.48,-0.22 -1,-0.36 -1.53,-0.39c-0.53,-0.04 -1.06,0.03 -1.57,0.19z" fill="#4382FF" id="svg_4"/>
  <path d="m64.21,7.51l-28.12,8.85c4.29,4.54 8.02,9.53 11.1,14.87c5.68,9.88 9.07,20.79 9.96,32l24.11,-7.59c0.5,-0.16 0.97,-0.41 1.37,-0.74c0.4,-0.32 0.73,-0.72 0.97,-1.17s0.38,-0.94 0.42,-1.44c0.03,-0.5 -0.03,-1.01 -0.2,-1.48l-14.5,-40.9c-0.34,-0.95 -1.07,-1.74 -2.03,-2.19c-0.95,-0.45 -2.06,-0.53 -3.08,-0.21z" fill="url(#a)" id="svg_5"/>
  <g id="svg_6" opacity="0.4">
   <path d="m6.52,29.02l14.61,42.16c0.13,0.39 0.35,0.74 0.64,1.05s0.65,0.55 1.05,0.73c0.41,0.17 0.85,0.27 1.3,0.29c0.46,0.02 0.92,-0.04 1.35,-0.18l5.21,-1.68l-16.66,-48.08l-5.2,1.67c-0.44,0.14 -0.84,0.36 -1.2,0.64c-0.35,0.28 -0.64,0.61 -0.85,0.99c-0.21,0.37 -0.34,0.78 -0.39,1.19c-0.04,0.41 0.01,0.83 0.14,1.22z" fill="#000" id="svg_7"/>
  </g>
  <path d="m40.02,55.8c2.13,-0.35 3.51,-2.54 3.08,-4.86c-0.2,-1.05 -0.79,-2.04 -1.49,-2.58l0.86,-6.12l0.98,-0.06c0.97,-0.16 2.06,-1.57 2.52,-2.3l5.63,2.3l0,0.81c0.43,2.32 2.54,3.93 4.67,3.57c2.13,-0.36 3.52,-2.55 3.08,-4.87c-0.2,-1.05 -1.13,-2.33 -1.88,-3.07l1,-5.81l1.23,0.13c2.13,-0.36 3.52,-2.55 3.08,-4.87c-0.44,-2.31 -2.54,-3.92 -4.67,-3.56s-3.52,2.54 -3.08,4.86c0.2,1.06 1.05,2.33 1.75,2.87l-1.31,5.89l-0.79,0c-0.97,0.16 -2.24,1.02 -2.71,1.75l-5.5,-1.88l0.06,-0.68c-0.44,-2.32 -2.54,-3.92 -4.67,-3.57c-2.13,0.36 -3.52,2.55 -3.08,4.87c0.19,1.05 1.38,2.27 2.08,2.8l-1.05,5.99l-1.38,-0.04c-2.14,0.36 -3.52,2.55 -3.09,4.87c0.44,2.32 2.54,3.92 4.68,3.56z" fill="#F7FAFC" id="svg_8"/>
 </g>
</svg>